<svg width="343" height="351" viewBox="0 0 343 351" fill="none" xmlns="http://www.w3.org/2000/svg">
<g opacity="0.07">
<path d="M135.28 236.356L-287 208.53V264.181L135.28 236.356Z" fill="url(#paint0_radial_1626_2852)"/>
<path d="M208.72 236.356L631 208.53L631 264.181L208.72 236.356Z" fill="url(#paint1_radial_1626_2852)"/>
<path d="M208.72 236.356L631 264.181L631 208.53L208.72 236.356Z" fill="url(#paint2_radial_1626_2852)"/>
<path d="M135.28 236.356L-287 264.181V208.53L135.28 236.356Z" fill="url(#paint3_radial_1626_2852)"/>
<path d="M172 199.636L199.825 -222.644L144.175 -222.644L172 199.636Z" fill="url(#paint4_radial_1626_2852)"/>
<path d="M172 273.076L199.825 695.355L144.175 695.355L172 273.076Z" fill="url(#paint5_radial_1626_2852)"/>
<path d="M172 273.076L144.175 695.355L199.825 695.355L172 273.076Z" fill="url(#paint6_radial_1626_2852)"/>
<path d="M172 199.636L144.175 -222.644L199.825 -222.644L172 199.636Z" fill="url(#paint7_radial_1626_2852)"/>
<path d="M146.035 262.32L-172.237 541.242L-132.886 580.593L146.035 262.32Z" fill="url(#paint8_radial_1626_2852)"/>
<path d="M197.965 210.391L476.886 -107.882L516.237 -68.5309L197.965 210.391Z" fill="url(#paint9_radial_1626_2852)"/>
<path d="M197.965 210.391L516.237 -68.5309L476.886 -107.882L197.965 210.391Z" fill="url(#paint10_radial_1626_2852)"/>
<path d="M146.035 262.32L-132.886 580.593L-172.237 541.242L146.035 262.32Z" fill="url(#paint11_radial_1626_2852)"/>
<path d="M146.035 210.391L-132.886 -107.882L-172.237 -68.5309L146.035 210.391Z" fill="url(#paint12_radial_1626_2852)"/>
<path d="M197.965 262.32L516.237 541.242L476.886 580.593L197.965 262.32Z" fill="url(#paint13_radial_1626_2852)"/>
<path d="M197.965 262.32L476.886 580.593L516.237 541.242L197.965 262.32Z" fill="url(#paint14_radial_1626_2852)"/>
<path d="M146.035 210.391L-172.237 -68.5309L-132.886 -107.882L146.035 210.391Z" fill="url(#paint15_radial_1626_2852)"/>
<path d="M136.531 226.852L-264.158 90.6803L-278.562 144.435L136.531 226.852Z" fill="url(#paint16_radial_1626_2852)"/>
<path d="M207.469 245.859L622.562 328.276L608.158 382.031L207.469 245.859Z" fill="url(#paint17_radial_1626_2852)"/>
<path d="M207.469 245.859L608.158 382.031L622.562 328.276L207.469 245.859Z" fill="url(#paint18_radial_1626_2852)"/>
<path d="M136.531 226.852L-278.562 144.435L-264.158 90.6803L136.531 226.852Z" fill="url(#paint19_radial_1626_2852)"/>
<path d="M181.504 200.887L317.675 -199.803L263.921 -214.206L181.504 200.887Z" fill="url(#paint20_radial_1626_2852)"/>
<path d="M162.496 271.824L80.0792 686.917L26.3247 672.514L162.496 271.824Z" fill="url(#paint21_radial_1626_2852)"/>
<path d="M162.496 271.824L26.3247 672.514L80.0792 686.917L162.496 271.824Z" fill="url(#paint22_radial_1626_2852)"/>
<path d="M181.504 200.887L263.921 -214.206L317.675 -199.803L181.504 200.887Z" fill="url(#paint23_radial_1626_2852)"/>
<path d="M140.2 254.716L-239.418 441.758L-211.593 489.953L140.2 254.716Z" fill="url(#paint24_radial_1626_2852)"/>
<path d="M203.8 217.996L555.593 -17.242L583.418 30.953L203.8 217.996Z" fill="url(#paint25_radial_1626_2852)"/>
<path d="M203.8 217.996L583.418 30.953L555.593 -17.242L203.8 217.996Z" fill="url(#paint26_radial_1626_2852)"/>
<path d="M140.2 254.716L-211.593 489.953L-239.418 441.758L140.2 254.716Z" fill="url(#paint27_radial_1626_2852)"/>
<path d="M153.64 204.555L-33.4025 -175.063L-81.5975 -147.237L153.64 204.555Z" fill="url(#paint28_radial_1626_2852)"/>
<path d="M190.36 268.156L425.597 619.948L377.402 647.774L190.36 268.156Z" fill="url(#paint29_radial_1626_2852)"/>
<path d="M190.36 268.156L377.402 647.774L425.597 619.948L190.36 268.156Z" fill="url(#paint30_radial_1626_2852)"/>
<path d="M153.64 204.555L-81.5975 -147.237L-33.4025 -175.063L153.64 204.555Z" fill="url(#paint31_radial_1626_2852)"/>
<path d="M140.199 217.995L-211.593 -17.242L-239.418 30.953L140.199 217.995Z" fill="url(#paint32_radial_1626_2852)"/>
<path d="M203.801 254.716L583.418 441.758L555.593 489.953L203.801 254.716Z" fill="url(#paint33_radial_1626_2852)"/>
<path d="M203.801 254.716L555.593 489.953L583.418 441.758L203.801 254.716Z" fill="url(#paint34_radial_1626_2852)"/>
<path d="M140.199 217.995L-239.418 30.953L-211.593 -17.242L140.199 217.995Z" fill="url(#paint35_radial_1626_2852)"/>
<path d="M190.36 204.555L425.597 -147.237L377.403 -175.063L190.36 204.555Z" fill="url(#paint36_radial_1626_2852)"/>
<path d="M153.64 268.156L-33.4025 647.774L-81.5975 619.948L153.64 268.156Z" fill="url(#paint37_radial_1626_2852)"/>
<path d="M153.64 268.156L-81.5975 619.948L-33.4025 647.774L153.64 268.156Z" fill="url(#paint38_radial_1626_2852)"/>
<path d="M190.36 204.555L377.403 -175.063L425.597 -147.237L190.36 204.555Z" fill="url(#paint39_radial_1626_2852)"/>
<path d="M136.531 245.859L-278.562 328.276L-264.158 382.031L136.531 245.859Z" fill="url(#paint40_radial_1626_2852)"/>
<path d="M207.469 226.852L608.158 90.6803L622.562 144.435L207.469 226.852Z" fill="url(#paint41_radial_1626_2852)"/>
<path d="M207.469 226.852L622.562 144.435L608.158 90.6803L207.469 226.852Z" fill="url(#paint42_radial_1626_2852)"/>
<path d="M136.531 245.859L-264.158 382.031L-278.562 328.276L136.531 245.859Z" fill="url(#paint43_radial_1626_2852)"/>
<path d="M162.496 200.887L80.0792 -214.206L26.3247 -199.803L162.496 200.887Z" fill="url(#paint44_radial_1626_2852)"/>
<path d="M181.504 271.824L317.675 672.514L263.921 686.917L181.504 271.824Z" fill="url(#paint45_radial_1626_2852)"/>
<path d="M181.504 271.824L263.921 686.917L317.675 672.514L181.504 271.824Z" fill="url(#paint46_radial_1626_2852)"/>
<path d="M162.496 200.887L26.3247 -199.803L80.0792 -214.206L162.496 200.887Z" fill="url(#paint47_radial_1626_2852)"/>
</g>
<defs>
<radialGradient id="paint0_radial_1626_2852" cx="0" cy="0" r="1" gradientUnits="userSpaceOnUse" gradientTransform="translate(172 236.356) rotate(0.961962) scale(414.24 375.818)">
<stop offset="0.759615" stop-color="#F8DF58" stop-opacity="0.3"/>
<stop offset="1" stop-color="#F7D834" stop-opacity="0"/>
</radialGradient>
<radialGradient id="paint1_radial_1626_2852" cx="0" cy="0" r="1" gradientUnits="userSpaceOnUse" gradientTransform="translate(172 236.356) rotate(0.961962) scale(414.24 375.818)">
<stop offset="0.759615" stop-color="#F8DF58" stop-opacity="0.3"/>
<stop offset="1" stop-color="#F7D834" stop-opacity="0"/>
</radialGradient>
<radialGradient id="paint2_radial_1626_2852" cx="0" cy="0" r="1" gradientUnits="userSpaceOnUse" gradientTransform="translate(172 236.356) rotate(0.961962) scale(414.24 375.818)">
<stop offset="0.759615" stop-color="#F8DF58" stop-opacity="0.3"/>
<stop offset="1" stop-color="#F7D834" stop-opacity="0"/>
</radialGradient>
<radialGradient id="paint3_radial_1626_2852" cx="0" cy="0" r="1" gradientUnits="userSpaceOnUse" gradientTransform="translate(172 236.356) rotate(0.961962) scale(414.24 375.818)">
<stop offset="0.759615" stop-color="#F8DF58" stop-opacity="0.3"/>
<stop offset="1" stop-color="#F7D834" stop-opacity="0"/>
</radialGradient>
<radialGradient id="paint4_radial_1626_2852" cx="0" cy="0" r="1" gradientUnits="userSpaceOnUse" gradientTransform="translate(172 236.356) rotate(0.961962) scale(414.24 375.818)">
<stop offset="0.759615" stop-color="#F8DF58" stop-opacity="0.3"/>
<stop offset="1" stop-color="#F7D834" stop-opacity="0"/>
</radialGradient>
<radialGradient id="paint5_radial_1626_2852" cx="0" cy="0" r="1" gradientUnits="userSpaceOnUse" gradientTransform="translate(172 236.356) rotate(0.961962) scale(414.24 375.818)">
<stop offset="0.759615" stop-color="#F8DF58" stop-opacity="0.3"/>
<stop offset="1" stop-color="#F7D834" stop-opacity="0"/>
</radialGradient>
<radialGradient id="paint6_radial_1626_2852" cx="0" cy="0" r="1" gradientUnits="userSpaceOnUse" gradientTransform="translate(172 236.356) rotate(0.961962) scale(414.24 375.818)">
<stop offset="0.759615" stop-color="#F8DF58" stop-opacity="0.3"/>
<stop offset="1" stop-color="#F7D834" stop-opacity="0"/>
</radialGradient>
<radialGradient id="paint7_radial_1626_2852" cx="0" cy="0" r="1" gradientUnits="userSpaceOnUse" gradientTransform="translate(172 236.356) rotate(0.961962) scale(414.24 375.818)">
<stop offset="0.759615" stop-color="#F8DF58" stop-opacity="0.3"/>
<stop offset="1" stop-color="#F7D834" stop-opacity="0"/>
</radialGradient>
<radialGradient id="paint8_radial_1626_2852" cx="0" cy="0" r="1" gradientUnits="userSpaceOnUse" gradientTransform="translate(172 236.356) rotate(0.961962) scale(414.24 375.818)">
<stop offset="0.759615" stop-color="#F8DF58" stop-opacity="0.3"/>
<stop offset="1" stop-color="#F7D834" stop-opacity="0"/>
</radialGradient>
<radialGradient id="paint9_radial_1626_2852" cx="0" cy="0" r="1" gradientUnits="userSpaceOnUse" gradientTransform="translate(172 236.356) rotate(0.961962) scale(414.24 375.818)">
<stop offset="0.759615" stop-color="#F8DF58" stop-opacity="0.3"/>
<stop offset="1" stop-color="#F7D834" stop-opacity="0"/>
</radialGradient>
<radialGradient id="paint10_radial_1626_2852" cx="0" cy="0" r="1" gradientUnits="userSpaceOnUse" gradientTransform="translate(172 236.356) rotate(0.961962) scale(414.24 375.818)">
<stop offset="0.759615" stop-color="#F8DF58" stop-opacity="0.3"/>
<stop offset="1" stop-color="#F7D834" stop-opacity="0"/>
</radialGradient>
<radialGradient id="paint11_radial_1626_2852" cx="0" cy="0" r="1" gradientUnits="userSpaceOnUse" gradientTransform="translate(172 236.356) rotate(0.961962) scale(414.24 375.818)">
<stop offset="0.759615" stop-color="#F8DF58" stop-opacity="0.3"/>
<stop offset="1" stop-color="#F7D834" stop-opacity="0"/>
</radialGradient>
<radialGradient id="paint12_radial_1626_2852" cx="0" cy="0" r="1" gradientUnits="userSpaceOnUse" gradientTransform="translate(172 236.356) rotate(0.961962) scale(414.24 375.818)">
<stop offset="0.759615" stop-color="#F8DF58" stop-opacity="0.3"/>
<stop offset="1" stop-color="#F7D834" stop-opacity="0"/>
</radialGradient>
<radialGradient id="paint13_radial_1626_2852" cx="0" cy="0" r="1" gradientUnits="userSpaceOnUse" gradientTransform="translate(172 236.356) rotate(0.961962) scale(414.24 375.818)">
<stop offset="0.759615" stop-color="#F8DF58" stop-opacity="0.3"/>
<stop offset="1" stop-color="#F7D834" stop-opacity="0"/>
</radialGradient>
<radialGradient id="paint14_radial_1626_2852" cx="0" cy="0" r="1" gradientUnits="userSpaceOnUse" gradientTransform="translate(172 236.356) rotate(0.961962) scale(414.24 375.818)">
<stop offset="0.759615" stop-color="#F8DF58" stop-opacity="0.3"/>
<stop offset="1" stop-color="#F7D834" stop-opacity="0"/>
</radialGradient>
<radialGradient id="paint15_radial_1626_2852" cx="0" cy="0" r="1" gradientUnits="userSpaceOnUse" gradientTransform="translate(172 236.356) rotate(0.961962) scale(414.24 375.818)">
<stop offset="0.759615" stop-color="#F8DF58" stop-opacity="0.3"/>
<stop offset="1" stop-color="#F7D834" stop-opacity="0"/>
</radialGradient>
<radialGradient id="paint16_radial_1626_2852" cx="0" cy="0" r="1" gradientUnits="userSpaceOnUse" gradientTransform="translate(172 236.356) rotate(0.961962) scale(414.24 375.818)">
<stop offset="0.759615" stop-color="#F8DF58" stop-opacity="0.3"/>
<stop offset="1" stop-color="#F7D834" stop-opacity="0"/>
</radialGradient>
<radialGradient id="paint17_radial_1626_2852" cx="0" cy="0" r="1" gradientUnits="userSpaceOnUse" gradientTransform="translate(172 236.356) rotate(0.961962) scale(414.24 375.818)">
<stop offset="0.759615" stop-color="#F8DF58" stop-opacity="0.3"/>
<stop offset="1" stop-color="#F7D834" stop-opacity="0"/>
</radialGradient>
<radialGradient id="paint18_radial_1626_2852" cx="0" cy="0" r="1" gradientUnits="userSpaceOnUse" gradientTransform="translate(172 236.356) rotate(0.961962) scale(414.24 375.818)">
<stop offset="0.759615" stop-color="#F8DF58" stop-opacity="0.3"/>
<stop offset="1" stop-color="#F7D834" stop-opacity="0"/>
</radialGradient>
<radialGradient id="paint19_radial_1626_2852" cx="0" cy="0" r="1" gradientUnits="userSpaceOnUse" gradientTransform="translate(172 236.356) rotate(0.961962) scale(414.24 375.818)">
<stop offset="0.759615" stop-color="#F8DF58" stop-opacity="0.3"/>
<stop offset="1" stop-color="#F7D834" stop-opacity="0"/>
</radialGradient>
<radialGradient id="paint20_radial_1626_2852" cx="0" cy="0" r="1" gradientUnits="userSpaceOnUse" gradientTransform="translate(172 236.356) rotate(0.961962) scale(414.24 375.818)">
<stop offset="0.759615" stop-color="#F8DF58" stop-opacity="0.3"/>
<stop offset="1" stop-color="#F7D834" stop-opacity="0"/>
</radialGradient>
<radialGradient id="paint21_radial_1626_2852" cx="0" cy="0" r="1" gradientUnits="userSpaceOnUse" gradientTransform="translate(172 236.356) rotate(0.961962) scale(414.24 375.818)">
<stop offset="0.759615" stop-color="#F8DF58" stop-opacity="0.3"/>
<stop offset="1" stop-color="#F7D834" stop-opacity="0"/>
</radialGradient>
<radialGradient id="paint22_radial_1626_2852" cx="0" cy="0" r="1" gradientUnits="userSpaceOnUse" gradientTransform="translate(172 236.356) rotate(0.961962) scale(414.24 375.818)">
<stop offset="0.759615" stop-color="#F8DF58" stop-opacity="0.3"/>
<stop offset="1" stop-color="#F7D834" stop-opacity="0"/>
</radialGradient>
<radialGradient id="paint23_radial_1626_2852" cx="0" cy="0" r="1" gradientUnits="userSpaceOnUse" gradientTransform="translate(172 236.356) rotate(0.961962) scale(414.24 375.818)">
<stop offset="0.759615" stop-color="#F8DF58" stop-opacity="0.3"/>
<stop offset="1" stop-color="#F7D834" stop-opacity="0"/>
</radialGradient>
<radialGradient id="paint24_radial_1626_2852" cx="0" cy="0" r="1" gradientUnits="userSpaceOnUse" gradientTransform="translate(172 236.356) rotate(0.961962) scale(414.24 375.818)">
<stop offset="0.759615" stop-color="#F8DF58" stop-opacity="0.3"/>
<stop offset="1" stop-color="#F7D834" stop-opacity="0"/>
</radialGradient>
<radialGradient id="paint25_radial_1626_2852" cx="0" cy="0" r="1" gradientUnits="userSpaceOnUse" gradientTransform="translate(172 236.356) rotate(0.961962) scale(414.24 375.818)">
<stop offset="0.759615" stop-color="#F8DF58" stop-opacity="0.3"/>
<stop offset="1" stop-color="#F7D834" stop-opacity="0"/>
</radialGradient>
<radialGradient id="paint26_radial_1626_2852" cx="0" cy="0" r="1" gradientUnits="userSpaceOnUse" gradientTransform="translate(172 236.356) rotate(0.961962) scale(414.24 375.818)">
<stop offset="0.759615" stop-color="#F8DF58" stop-opacity="0.3"/>
<stop offset="1" stop-color="#F7D834" stop-opacity="0"/>
</radialGradient>
<radialGradient id="paint27_radial_1626_2852" cx="0" cy="0" r="1" gradientUnits="userSpaceOnUse" gradientTransform="translate(172 236.356) rotate(0.961962) scale(414.24 375.818)">
<stop offset="0.759615" stop-color="#F8DF58" stop-opacity="0.3"/>
<stop offset="1" stop-color="#F7D834" stop-opacity="0"/>
</radialGradient>
<radialGradient id="paint28_radial_1626_2852" cx="0" cy="0" r="1" gradientUnits="userSpaceOnUse" gradientTransform="translate(172 236.356) rotate(0.961962) scale(414.24 375.818)">
<stop offset="0.759615" stop-color="#F8DF58" stop-opacity="0.3"/>
<stop offset="1" stop-color="#F7D834" stop-opacity="0"/>
</radialGradient>
<radialGradient id="paint29_radial_1626_2852" cx="0" cy="0" r="1" gradientUnits="userSpaceOnUse" gradientTransform="translate(172 236.356) rotate(0.961962) scale(414.24 375.818)">
<stop offset="0.759615" stop-color="#F8DF58" stop-opacity="0.3"/>
<stop offset="1" stop-color="#F7D834" stop-opacity="0"/>
</radialGradient>
<radialGradient id="paint30_radial_1626_2852" cx="0" cy="0" r="1" gradientUnits="userSpaceOnUse" gradientTransform="translate(172 236.356) rotate(0.961962) scale(414.24 375.818)">
<stop offset="0.759615" stop-color="#F8DF58" stop-opacity="0.3"/>
<stop offset="1" stop-color="#F7D834" stop-opacity="0"/>
</radialGradient>
<radialGradient id="paint31_radial_1626_2852" cx="0" cy="0" r="1" gradientUnits="userSpaceOnUse" gradientTransform="translate(172 236.356) rotate(0.961962) scale(414.24 375.818)">
<stop offset="0.759615" stop-color="#F8DF58" stop-opacity="0.3"/>
<stop offset="1" stop-color="#F7D834" stop-opacity="0"/>
</radialGradient>
<radialGradient id="paint32_radial_1626_2852" cx="0" cy="0" r="1" gradientUnits="userSpaceOnUse" gradientTransform="translate(172 236.356) rotate(0.961962) scale(414.24 375.818)">
<stop offset="0.759615" stop-color="#F8DF58" stop-opacity="0.3"/>
<stop offset="1" stop-color="#F7D834" stop-opacity="0"/>
</radialGradient>
<radialGradient id="paint33_radial_1626_2852" cx="0" cy="0" r="1" gradientUnits="userSpaceOnUse" gradientTransform="translate(172 236.356) rotate(0.961962) scale(414.24 375.818)">
<stop offset="0.759615" stop-color="#F8DF58" stop-opacity="0.3"/>
<stop offset="1" stop-color="#F7D834" stop-opacity="0"/>
</radialGradient>
<radialGradient id="paint34_radial_1626_2852" cx="0" cy="0" r="1" gradientUnits="userSpaceOnUse" gradientTransform="translate(172 236.356) rotate(0.961962) scale(414.24 375.818)">
<stop offset="0.759615" stop-color="#F8DF58" stop-opacity="0.3"/>
<stop offset="1" stop-color="#F7D834" stop-opacity="0"/>
</radialGradient>
<radialGradient id="paint35_radial_1626_2852" cx="0" cy="0" r="1" gradientUnits="userSpaceOnUse" gradientTransform="translate(172 236.356) rotate(0.961962) scale(414.24 375.818)">
<stop offset="0.759615" stop-color="#F8DF58" stop-opacity="0.3"/>
<stop offset="1" stop-color="#F7D834" stop-opacity="0"/>
</radialGradient>
<radialGradient id="paint36_radial_1626_2852" cx="0" cy="0" r="1" gradientUnits="userSpaceOnUse" gradientTransform="translate(172 236.356) rotate(0.961962) scale(414.24 375.818)">
<stop offset="0.759615" stop-color="#F8DF58" stop-opacity="0.3"/>
<stop offset="1" stop-color="#F7D834" stop-opacity="0"/>
</radialGradient>
<radialGradient id="paint37_radial_1626_2852" cx="0" cy="0" r="1" gradientUnits="userSpaceOnUse" gradientTransform="translate(172 236.356) rotate(0.961962) scale(414.24 375.818)">
<stop offset="0.759615" stop-color="#F8DF58" stop-opacity="0.3"/>
<stop offset="1" stop-color="#F7D834" stop-opacity="0"/>
</radialGradient>
<radialGradient id="paint38_radial_1626_2852" cx="0" cy="0" r="1" gradientUnits="userSpaceOnUse" gradientTransform="translate(172 236.356) rotate(0.961962) scale(414.24 375.818)">
<stop offset="0.759615" stop-color="#F8DF58" stop-opacity="0.3"/>
<stop offset="1" stop-color="#F7D834" stop-opacity="0"/>
</radialGradient>
<radialGradient id="paint39_radial_1626_2852" cx="0" cy="0" r="1" gradientUnits="userSpaceOnUse" gradientTransform="translate(172 236.356) rotate(0.961962) scale(414.24 375.818)">
<stop offset="0.759615" stop-color="#F8DF58" stop-opacity="0.3"/>
<stop offset="1" stop-color="#F7D834" stop-opacity="0"/>
</radialGradient>
<radialGradient id="paint40_radial_1626_2852" cx="0" cy="0" r="1" gradientUnits="userSpaceOnUse" gradientTransform="translate(172 236.356) rotate(0.961962) scale(414.24 375.818)">
<stop offset="0.759615" stop-color="#F8DF58" stop-opacity="0.3"/>
<stop offset="1" stop-color="#F7D834" stop-opacity="0"/>
</radialGradient>
<radialGradient id="paint41_radial_1626_2852" cx="0" cy="0" r="1" gradientUnits="userSpaceOnUse" gradientTransform="translate(172 236.356) rotate(0.961962) scale(414.24 375.818)">
<stop offset="0.759615" stop-color="#F8DF58" stop-opacity="0.3"/>
<stop offset="1" stop-color="#F7D834" stop-opacity="0"/>
</radialGradient>
<radialGradient id="paint42_radial_1626_2852" cx="0" cy="0" r="1" gradientUnits="userSpaceOnUse" gradientTransform="translate(172 236.356) rotate(0.961962) scale(414.24 375.818)">
<stop offset="0.759615" stop-color="#F8DF58" stop-opacity="0.3"/>
<stop offset="1" stop-color="#F7D834" stop-opacity="0"/>
</radialGradient>
<radialGradient id="paint43_radial_1626_2852" cx="0" cy="0" r="1" gradientUnits="userSpaceOnUse" gradientTransform="translate(172 236.356) rotate(0.961962) scale(414.24 375.818)">
<stop offset="0.759615" stop-color="#F8DF58" stop-opacity="0.3"/>
<stop offset="1" stop-color="#F7D834" stop-opacity="0"/>
</radialGradient>
<radialGradient id="paint44_radial_1626_2852" cx="0" cy="0" r="1" gradientUnits="userSpaceOnUse" gradientTransform="translate(172 236.356) rotate(0.961962) scale(414.24 375.818)">
<stop offset="0.759615" stop-color="#F8DF58" stop-opacity="0.3"/>
<stop offset="1" stop-color="#F7D834" stop-opacity="0"/>
</radialGradient>
<radialGradient id="paint45_radial_1626_2852" cx="0" cy="0" r="1" gradientUnits="userSpaceOnUse" gradientTransform="translate(172 236.356) rotate(0.961962) scale(414.24 375.818)">
<stop offset="0.759615" stop-color="#F8DF58" stop-opacity="0.3"/>
<stop offset="1" stop-color="#F7D834" stop-opacity="0"/>
</radialGradient>
<radialGradient id="paint46_radial_1626_2852" cx="0" cy="0" r="1" gradientUnits="userSpaceOnUse" gradientTransform="translate(172 236.356) rotate(0.961962) scale(414.24 375.818)">
<stop offset="0.759615" stop-color="#F8DF58" stop-opacity="0.3"/>
<stop offset="1" stop-color="#F7D834" stop-opacity="0"/>
</radialGradient>
<radialGradient id="paint47_radial_1626_2852" cx="0" cy="0" r="1" gradientUnits="userSpaceOnUse" gradientTransform="translate(172 236.356) rotate(0.961962) scale(414.24 375.818)">
<stop offset="0.759615" stop-color="#F8DF58" stop-opacity="0.3"/>
<stop offset="1" stop-color="#F7D834" stop-opacity="0"/>
</radialGradient>
</defs>
</svg>
