<svg width="109" height="105" viewBox="0 0 109 105" fill="none" xmlns="http://www.w3.org/2000/svg">
<g filter="url(#filter0_d_1626_2832)">
<g clip-path="url(#clip0_1626_2832)">
<rect x="24.5" y="12.06" width="60" height="60" rx="10" fill="#E23744"/>
<rect width="60" height="60" transform="translate(24.5 12.06)" fill="#E23744"/>
<g clip-path="url(#clip1_1626_2832)">
<path d="M39.1455 39.6829L39.1052 40.9799L35.7224 44.657C37.1355 44.657 38.0315 44.6432 38.5482 44.6145C38.3984 45.3123 38.2766 45.8828 38.154 46.7381C37.4744 46.6807 36.4151 46.6663 35.3552 46.6663C34.1736 46.6663 33.141 46.6805 32.3123 46.7381L32.3399 45.4263L35.7224 41.764C34.2416 41.764 33.698 41.778 33.087 41.7923C33.2224 41.1367 33.3176 40.4101 33.4127 39.6829C34.4859 39.7256 34.907 39.7396 36.3064 39.7396C37.5971 39.7398 38.3303 39.7256 39.1455 39.6829ZM42.9905 39.2977C40.789 39.2977 39.1052 41.2645 39.1052 43.617C39.1052 45.384 40.1239 46.7381 42.1072 46.7381C44.3217 46.7381 45.9926 44.7708 45.9926 42.4046C45.9928 40.6524 45.0007 39.2977 42.9905 39.2977ZM42.3246 44.8476C41.8353 44.8476 41.5503 44.4052 41.5503 43.5359C41.5503 42.2389 42.0801 41.1987 42.7326 41.1987C43.2076 41.1987 43.493 41.6266 43.493 42.5097C43.4928 43.7924 42.977 44.8476 42.3246 44.8476ZM74.1058 39.2001C71.8762 39.2001 70.1697 41.193 70.1697 43.575C70.1697 45.3661 71.2019 46.7381 73.2112 46.7381C75.4546 46.7381 77.1476 44.745 77.1476 42.3481C77.1478 40.5723 76.1435 39.2001 74.1058 39.2001ZM73.3893 44.8401C72.8999 44.8401 72.6151 44.3976 72.6151 43.5284C72.6151 42.2314 73.145 41.1914 73.7973 41.1914C74.2722 41.1914 74.5581 41.6189 74.5581 42.5022C74.5577 43.7854 74.0414 44.8401 73.3893 44.8401ZM57.4175 41.8635C57.5943 40.6524 57.4992 39.5547 56.1545 39.5547C55.1762 39.5547 54.1167 40.3815 53.3695 41.764C53.5327 40.6234 53.4373 39.5547 52.1061 39.5547C51.1008 39.5547 50.014 40.424 49.2665 41.8635C49.4568 40.9229 49.4163 39.8536 49.3618 39.6257C48.5875 39.7541 47.9086 39.8251 46.9573 39.8536C46.9846 40.5095 46.9437 41.3641 46.8214 42.1772L46.509 44.3148C46.3867 45.1561 46.2507 46.1252 46.1148 46.7382H48.6417C48.6555 46.3672 48.7507 45.7831 48.8185 45.27L49.0359 43.8022C49.2124 42.8467 49.973 41.7213 50.5571 41.7213C50.8968 41.7213 50.8835 42.049 50.7883 42.6618L50.5436 44.3146C50.421 45.1559 50.2856 46.1251 50.1494 46.7381H52.7034C52.7173 46.367 52.7987 45.7829 52.8665 45.2698L53.0837 43.802C53.2605 42.8465 54.0216 41.7211 54.6054 41.7211C54.9454 41.7211 54.9319 42.0343 54.8771 42.4622L54.267 46.7379H56.5979L57.4175 41.8635ZM69.6219 44.5004L69.3502 46.1824C68.9289 46.4104 68.1409 46.7384 67.2307 46.7384C65.6819 46.7384 65.3698 45.9116 65.6139 44.1586L66.0081 41.3364H65.2459L65.4611 39.5097L66.2933 39.4695L66.6059 38.144L68.9558 37.26L68.6572 39.4693H70.2739C70.2198 39.6973 70.029 40.9519 69.9755 41.3363H68.3987L68.0454 43.9446C67.9504 44.6145 68.0051 44.8569 68.4664 44.8569C68.8068 44.8566 69.3089 44.657 69.6219 44.5004ZM60.7078 45.4089C61.5631 45.303 62.1517 44.4785 62.2932 43.6559L62.3171 43.4355C61.9496 43.3533 61.4184 43.2907 60.9033 43.3537C60.4128 43.4134 60.0046 43.6173 59.7851 43.9125C59.6196 44.1245 59.5364 44.3781 59.5733 44.6805C59.6291 45.1333 60.13 45.4794 60.7078 45.4089ZM59.9799 46.7117C58.7727 46.86 57.9777 46.3808 57.739 45.2909C57.5893 44.6051 57.7971 43.8239 58.1606 43.3578C58.6476 42.7482 59.441 42.3569 60.4092 42.2387C61.1885 42.1421 61.845 42.1898 62.4591 42.306L62.4846 42.2007C62.5022 42.0323 62.5199 41.8643 62.4953 41.663C62.4317 41.1463 62.0242 40.8386 61.0181 40.9623C60.3393 41.0457 59.6935 41.2909 59.192 41.57L58.7042 40.0959C59.3839 39.7057 60.2407 39.4087 61.2211 39.2884C63.094 39.0586 64.41 39.6558 64.5786 41.0289C64.6232 41.394 64.6286 41.781 64.5825 42.1322C64.342 43.8298 64.188 45.1073 64.1204 45.9635C64.1094 46.096 64.1103 46.3238 64.1222 46.6466L61.7981 46.6444C61.8476 46.5106 61.8919 46.3292 61.9313 46.1016C61.9575 45.9518 61.9761 45.763 61.9878 45.5341C61.4966 46.2081 60.8214 46.6084 59.9799 46.7117Z" fill="white"/>
</g>
</g>
<rect x="25" y="12.56" width="59" height="59" rx="9.5" stroke="#6C849D" stroke-opacity="0.18"/>
</g>
<defs>
<filter id="filter0_d_1626_2832" x="0.5" y="-3.94" width="108" height="108" filterUnits="userSpaceOnUse" color-interpolation-filters="sRGB">
<feFlood flood-opacity="0" result="BackgroundImageFix"/>
<feColorMatrix in="SourceAlpha" type="matrix" values="0 0 0 0 0 0 0 0 0 0 0 0 0 0 0 0 0 0 127 0" result="hardAlpha"/>
<feOffset dy="8"/>
<feGaussianBlur stdDeviation="12"/>
<feColorMatrix type="matrix" values="0 0 0 0 0.0980392 0 0 0 0 0.156863 0 0 0 0 0.223529 0 0 0 0.12 0"/>
<feBlend mode="normal" in2="BackgroundImageFix" result="effect1_dropShadow_1626_2832"/>
<feBlend mode="normal" in="SourceGraphic" in2="effect1_dropShadow_1626_2832" result="shape"/>
</filter>
<clipPath id="clip0_1626_2832">
<rect x="24.5" y="12.06" width="60" height="60" rx="10" fill="white"/>
</clipPath>
<clipPath id="clip1_1626_2832">
<rect width="44.8598" height="9.6" fill="white" transform="translate(32.3 37.26)"/>
</clipPath>
</defs>
</svg>
